<svg xmlns="http://www.w3.org/2000/svg" viewBox="0 0 511.998 511"><path d="M308.719 121.172a7.504 7.504 0 00-7.504 7.504v9.34a7.503 7.503 0 1015.004 0v-9.34a7.503 7.503 0 00-7.5-7.504zm0 0M411.96 121.172a7.504 7.504 0 00-7.503 7.504v9.34a7.503 7.503 0 1015.004 0v-9.34a7.503 7.503 0 00-7.5-7.504zm0 0M378.016 131.719a7.501 7.501 0 00-10.586.71c-1.707 1.954-4.293 3.071-7.094 3.071-2.8 0-5.383-1.117-7.09-3.07a7.498 7.498 0 00-10.586-.711 7.498 7.498 0 00-.71 10.586c4.554 5.21 11.257 8.203 18.386 8.203 7.133 0 13.836-2.988 18.39-8.203a7.501 7.501 0 00-.71-10.586zm0 0"/><path d="M419.531 83.602a7.944 7.944 0 01-5.976-4.344s-32.594-66.043-32.645-66.14c-7.379-14.958-28.625-17.102-38.762-3.829-17.898 1.86-93.324 12.84-169.66 70.266-50.195 37.757-90.164 87.836-118.808 148.851C18.059 304.277 0 397.336 0 504.992c0 4.14 3.36 7.5 7.504 7.5h116.273a7.5 7.5 0 007.461-6.722c4.477-42.91 22.864-80.891 54.645-112.891 25.73-25.906 60.27-48.043 102.652-65.793 66.137-27.703 131.145-35.984 143.04-37.32a22.57 22.57 0 008.421 1.636c14.027 0 24.973-13.066 22.606-26.855l-12.465-72.7a7.93 7.93 0 012.281-7.023s52.742-51.414 52.816-51.484c13.395-13.059 5.715-36.453-12.71-39.133zM67.023 235.289c27.489-58.742 65.793-106.945 113.852-143.266C243.43 44.746 306.715 30 333.582 25.645l-26.46 53.613c-1.114 2.262-3.392 3.965-5.977 4.344l-72.993 10.605c-8.707 1.266-15.8 7.246-18.52 15.613-1.593 4.899-1.491 10.395.34 15.22-.027.01-.058.03-.085.046-15.735 8.773-30.36 19.531-43.985 31.289a7.503 7.503 0 009.805 11.36c13.266-11.45 27.879-22.243 43.477-30.61l.09-.047 40.855 39.824c-.047.024-.102.047-.152.07-35.375 16.196-67.63 38.91-95.618 65.876-30.843 29.714-55.425 64.172-73.058 102.418-16.028 34.77-25.922 72.214-30.348 110.203-1.617 13.918-2.52 28.011-2.758 42.02H44.117v-.15c.528-52.796 7.293-105.87 22.84-156.421l.234-.762c13.25-42.797 32.965-83.812 59.793-119.781 8.524-11.422 17.75-22.375 27.637-32.645a7.503 7.503 0 00-.2-10.609c-2.921-2.812-7.796-2.719-10.608.2-68.137 70.73-102.13 166.87-111.657 263.257-1.86 18.82-2.84 37.723-3.043 56.637 0 .09-.004.18-.004.273H15.035c.817-102.008 18.293-190.191 51.988-262.199zm216.047 77.816c-44.285 18.508-80.52 41.747-107.699 69.067-32.672 32.844-52.246 71.61-58.246 115.316h-14.781c.953-30.218 7.941-60.297 20.742-87.703a7.502 7.502 0 00-3.621-9.972c-3.653-1.704-8.27-.024-9.973 3.625-13.691 29.3-21.219 61.73-22.176 94.05H73.215c.25-14.586 1.246-29.16 3.043-43.64 4.39-35.106 13.687-69.657 28.46-101.84a.78.78 0 00.04-.082c16.77-36.5 40.172-69.414 69.55-97.828 27.919-26.996 60.512-49.551 96.051-65.27.032-.015.067-.027.098-.043.008.035.02.07.027.106.2.968.223 1.984.055 2.957l-11.789 68.726c-19.012 8.711-37.043 19.696-53.988 31.922-24.996 18.031-57.067 46.215-81.102 84.84a7.505 7.505 0 002.406 10.336 7.505 7.505 0 0010.336-2.406c19.66-31.598 46.543-58.38 76.61-80.121 14.25-10.31 29.793-21.579 46.355-28.149 3.738 8.457 11.903 14.406 21.313 14.406 3.707 0 7.398-.945 10.68-2.672l65.285-34.324c2.27-1.191 5.117-1.191 7.386 0l44.508 23.399c-27.559 4.468-75.687 14.496-125.469 35.3zm213.703-198.648c.954 2.938.204 5.98-2.007 8.133l-52.82 51.488a22.93 22.93 0 00-6.598 20.305l12.468 72.699c1.09 6.363-5.78 11.383-11.515 8.367 0 0-66.113-34.742-66.535-34.933a22.94 22.94 0 00-20.106.609s-65.265 34.312-65.285 34.324c-5.684 2.988-12.543-1.972-11.523-8.281.003-.031.003-.059.007-.086l12.47-72.7a22.941 22.941 0 00-6.599-20.304l-52.82-51.488c-4.574-4.535-2.015-12.602 4.399-13.535L303.3 98.449a22.94 22.94 0 0017.277-12.55s32.586-66.028 32.64-66.145c2.864-5.805 11.38-5.785 14.235 0l32.645 66.144A22.927 22.927 0 00417.37 98.45l72.992 10.606c3.059.445 5.453 2.465 6.41 5.402zm0 0"/></svg>