<svg width="24" height="24" viewBox="0 0 24 24" fill="none" xmlns="http://www.w3.org/2000/svg">
<path d="M23.9269 2.90561C22.8802 1.85894 22.2936 1.27227 21.2482 0.226929H14.9429C13.8962 1.27227 13.3096 1.85894 12.2642 2.90561C11.2176 1.85894 10.6309 1.27227 9.58555 0.226929H3.27891C2.23357 1.27227 1.6469 1.85894 0.601562 2.90561V9.21091C1.6469 10.2576 2.23357 10.8429 3.27891 11.8896C2.23357 12.9363 1.6469 13.5216 0.601562 14.5683V20.8736C1.6469 21.9189 2.23357 22.5056 3.27891 23.5522H9.58555C10.6309 22.5056 11.2176 21.9189 12.2642 20.8736C13.3096 21.9189 13.8962 22.5056 14.9429 23.5522H21.2482C22.2936 22.5056 22.8802 21.9189 23.9269 20.8736V14.5683C22.8802 13.5216 22.2936 12.9363 21.2482 11.8896C22.2936 10.8429 22.8802 10.2576 23.9269 9.21091V2.90561Z" fill="#1663D4"/>
</svg>
